<?xml version="1.0" encoding="utf-8"?>
<svg version="1.1" xmlns="http://www.w3.org/2000/svg" xmlns:xlink="http://www.w3.org/1999/xlink"
	 x="0px" y="0px" viewBox="0 0 512 512" style="enable-background:new 0 0 512 512;" xml:space="preserve">
<style type="text/css">
	.st0{fill:#F2F2F2;}
</style>
<g>
	<g>
		<path class="st0" d="M255,275.5H43.2c-15.9,0-28.7-12.9-28.7-28.7V69.9c0-15.9,12.9-28.7,28.7-28.7H255
			c15.9,0,28.7,12.9,28.7,28.7v176.8C283.8,262.6,270.9,275.5,255,275.5z"/>
		<path d="M255,280.6H43.2c-18.7,0-33.9-15.2-33.9-33.9V69.9c0-18.7,15.2-33.9,33.9-33.9H255c18.7,0,33.9,15.2,33.9,33.9v176.8
			c0.1,9-3.4,17.5-9.8,23.9C272.7,277.1,264.1,280.6,255,280.6z M43.2,46.3c-13,0-23.6,10.6-23.6,23.6v176.8
			c0,13,10.6,23.6,23.6,23.6H255c6.4,0,12.4-2.5,16.8-7c4.4-4.4,6.8-10.3,6.8-16.6V69.9c0-13-10.6-23.6-23.6-23.6H43.2z"/>
	</g>
	<g>
		<path class="st0" d="M430.6,473.1l-207.5-42.2c-15.5-3.2-25.7-18.4-22.5-33.9l35.3-173.3c3.2-15.5,18.4-25.7,33.9-22.5l207.5,42.2
			c15.5,3.2,25.7,18.4,22.5,33.9l-35.3,173.3C461.3,466.1,446.2,476.2,430.6,473.1z"/>
		<path d="M436.2,475.9c-2,0-4-0.2-6-0.6l0,0l-207.5-42.2c-8.1-1.7-15.1-6.4-19.7-13.3c-4.6-6.9-6.2-15.2-4.6-23.3l35.2-173.3
			c1.7-8.1,6.4-15.1,13.3-19.7c6.9-4.6,15.2-6.2,23.3-4.6l207.5,42.2c16.8,3.5,27.7,19.9,24.3,36.6l-35.2,173.3
			C463.7,465.8,450.7,475.9,436.2,475.9z M431.1,470.9c14.3,2.8,28.3-6.5,31.2-20.7l35.2-173.3c2.9-14.2-6.4-28.2-20.7-31.2
			l-207.5-42.2c-6.9-1.4-13.9,0-19.8,3.9c-5.9,3.9-9.9,9.9-11.3,16.8l-35.2,173.3c-1.4,6.9,0,13.9,3.9,19.8
			c3.9,5.9,9.9,9.9,16.8,11.3L431.1,470.9L431.1,470.9z"/>
	</g>
	<g>
		<path class="st0" d="M243.9,216.2l210.6,22.1c15.7,1.7,27.3,15.9,25.6,31.6l-18.5,175.8c-1.7,15.7-15.9,27.3-31.6,25.6
			l-210.6-22.1c-15.7-1.7-27.3-15.9-25.6-31.6l18.5-175.8C214,226,228.2,214.6,243.9,216.2z"/>
		<path d="M433.1,473.7c-1.1,0-2.2-0.1-3.3-0.2l-210.6-22.1c-8.2-0.9-15.6-4.9-20.9-11.4c-5.2-6.5-7.6-14.5-6.7-22.7L210,241.5
			c1.8-16.9,17.1-29.3,34.1-27.6l0,0l210.6,22.1c8.2,0.9,15.6,4.9,20.9,11.4c5.2,6.5,7.6,14.5,6.7,22.7L463.8,446
			C462.1,461.9,448.6,473.7,433.1,473.7z M241,218.3c-13.4,0-24.9,10.1-26.4,23.7l-18.5,175.8c-0.8,7,1.3,13.9,5.7,19.4
			c4.5,5.5,10.8,8.9,17.8,9.7L430.2,469c14.5,1.6,27.5-9,29.1-23.5l18.5-175.8c0.8-7-1.3-13.9-5.7-19.4c-4.5-5.5-10.8-8.9-17.8-9.7
			l-210.6-22.1C242.8,218.4,241.9,218.3,241,218.3z"/>
	</g>
	<g>
		<path class="st0" d="M217,233.1h211.7c15.9,0,28.7,12.9,28.7,28.7v176.8c0,15.9-12.9,28.7-28.7,28.7H217
			c-15.9,0-28.7-12.9-28.7-28.7V261.8C188.2,246,201.1,233.1,217,233.1z"/>
		<path d="M428.7,472.5H217c-18.7,0-33.9-15.2-33.9-33.9V261.8c0-18.7,15.2-33.9,33.9-33.9h211.7c18.7,0,33.9,15.2,33.9,33.9v176.8
			C462.6,457.3,447.4,472.5,428.7,472.5z M217,238.2c-13,0-23.6,10.6-23.6,23.6v176.8c0,13,10.6,23.6,23.6,23.6h211.7
			c13,0,23.6-10.6,23.6-23.6V261.8c0-13-10.6-23.6-23.6-23.6H217z"/>
	</g>
	<g>
		<path d="M274,380.2v21.4h-10.2V389h-45.7v12.7H208v-21.4h6l22.8-60.3h7l24,60.3H274z M240.2,334.4l-16.3,46h33.9L240.2,334.4z"/>
		<path d="M279.6,354.7c0-4.8,0.9-9.2,2.6-13.6c1.8-4.2,4.2-8,7.5-11.3c3.2-3.2,7.2-5.8,11.8-7.6c4.6-1.9,9.7-2.9,15.3-2.9
			c5.7,0,10.8,0.9,15.5,2.9c4.6,1.9,8.6,4.4,11.8,7.6c3.2,3.2,5.7,7,7.4,11.2c1.7,4.2,2.6,8.8,2.6,13.6c0,4.7-0.8,9.1-2.5,13.3
			c-1.7,4.2-4.1,8-7.4,11.3c-3.2,3.3-7.2,5.8-11.8,7.8c-4.7,1.9-9.9,2.9-15.7,2.9c-3.8,0-7.3-0.5-10.6-1.3c-3.3-0.9-6.3-2.1-9-3.7
			c-2.7-1.6-5.1-3.4-7.3-5.6s-4-4.6-5.5-7.2c-1.5-2.6-2.6-5.4-3.4-8.3C279.9,360.8,279.6,357.9,279.6,354.7z M289.9,354.7
			c0,3.8,0.7,7.2,2.1,10.4c1.4,3.2,3.2,5.9,5.6,8.3c2.4,2.4,5.2,4.2,8.6,5.5c3.3,1.4,6.8,1.9,10.7,1.9c3.9,0,7.4-0.7,10.7-1.9
			c3.3-1.4,6.2-3.2,8.6-5.5c2.4-2.4,4.2-5.1,5.6-8.3c1.4-3.2,2.1-6.7,2.1-10.4c0-3.8-0.7-7.3-2.1-10.5c-1.4-3.2-3.2-5.9-5.6-8.3
			c-2.4-2.4-5.2-4.1-8.6-5.5c-3.3-1.4-6.8-1.9-10.7-1.9c-3.9,0-7.4,0.7-10.7,1.9c-3.3,1.4-6.2,3.2-8.6,5.5c-2.4,2.3-4.2,5.1-5.6,8.3
			C290.6,347.4,289.9,350.9,289.9,354.7z"/>
		<path d="M430.8,320.4v68.8h-9.9v-53.6h-0.2l-21.3,26.6h-1.6l-21.3-26.6h-0.2v53.6h-9.9v-68.8h9.4l22.9,28.3l23-28.3H430.8z"/>
	</g>
	<g>
		<path d="M78.8,134.1v4.3c0.7-0.6,1.6-1.3,2.6-1.9c1-0.7,2.2-1.3,3.4-1.8c1.3-0.6,2.6-0.9,4.2-1.3c1.5-0.3,3.2-0.5,5.1-0.5
			c2.7,0,5.1,0.5,7.2,1.3c2.1,0.8,3.8,1.9,5.1,3.5c1.4,1.5,2.4,3.3,3.2,5.5c0.7,2.2,1,4.6,1,7.2v36h-8.6v-34.7c0-1.5-0.1-3-0.3-4.3
			c-0.2-1.4-0.7-2.6-1.4-3.7c-0.7-1-1.7-1.8-3-2.5c-1.3-0.6-3.1-0.9-5.2-0.9c-1.5,0-3,0.1-4.2,0.5s-2.5,0.7-3.5,1.3
			c-1,0.6-1.9,1.1-2.9,1.8c-0.8,0.7-1.5,1.4-1.9,2.2v40.4h-7.6v-4.3c-0.8,0.6-1.6,1.3-2.6,1.9c-1,0.7-2.1,1.3-3.4,1.8
			c-1.3,0.6-2.6,0.9-4.2,1.3c-1.5,0.3-3.2,0.5-5.1,0.5c-2.7,0-5.1-0.5-7.2-1.3s-3.8-1.9-5.1-3.5c-1.4-1.5-2.4-3.3-3.2-5.5
			c-0.7-2.2-1-4.6-1-7.2v-36h8.6v34.7c0,1.6,0.1,3,0.3,4.3s0.7,2.6,1.4,3.7c0.7,1,1.7,1.8,3,2.5c1.3,0.6,3.1,0.9,5.2,0.9
			c1.5,0,3-0.1,4.2-0.5c1.3-0.3,2.5-0.7,3.5-1.3c1-0.6,1.9-1.1,2.9-1.8c0.8-0.7,1.5-1.4,1.9-2.2v-40.4L78.8,134.1L78.8,134.1z"/>
		<path d="M131.8,134.1v4.3c1-0.8,2.1-1.6,3.2-2.3c1.1-0.7,2.3-1.3,3.5-1.7c1.3-0.5,2.6-0.8,4.1-1.1c1.5-0.3,3.1-0.3,4.9-0.3
			c5.6,0,9.9,1.5,13,4.4c3.1,3,4.6,7.2,4.6,12.8v36.3h-8.6v-34.7c0-1.9-0.1-3.5-0.5-5c-0.3-1.4-0.9-2.6-1.7-3.5
			c-0.8-0.9-1.9-1.7-3.4-2.2c-1.4-0.5-3.2-0.7-5.4-0.7c-1.8,0-3.4,0.2-4.9,0.6c-1.4,0.3-2.6,0.8-3.7,1.4c-1,0.6-1.9,1.1-2.6,1.8
			c-0.7,0.7-1.3,1.4-1.7,1.9v40.4h-8.6v-52.4H131.8z"/>
		<path d="M209.2,186.4h-30.7v-52.4h8.6v44.7h22.1V186.4z"/>
		<path d="M249.3,186.4v-4.3c-1,0.8-2.1,1.6-3.2,2.3c-1.1,0.7-2.3,1.3-3.5,1.7s-2.6,0.8-4.1,1.1c-1.5,0.3-3.1,0.3-4.9,0.3
			c-5.6,0-9.9-1.5-13-4.4c-3.1-3-4.6-7.2-4.6-12.8v-48.5h-10.3v-7.6h18.7v54.5c0,1.9,0.1,3.5,0.5,5c0.3,1.4,0.9,2.6,1.7,3.5
			c0.8,0.9,1.9,1.7,3.4,2.2c1.4,0.5,3.2,0.7,5.4,0.7c1.8,0,3.4-0.2,4.8-0.6s2.6-0.8,3.7-1.4c1-0.6,1.9-1.1,2.6-1.8
			c0.7-0.7,1.3-1.4,1.7-1.9v-40.4h8.6v52.4H249.3z"/>
	</g>
	<g>
		<g>
			<path d="M408.1,184.1c-8.9-54.4-32.4-82.3-78.8-93.5l2.7-11.1c50.8,12.2,77.7,43.9,87.3,102.7L408.1,184.1z"/>
			<g>
				<polygon points="380.3,53.1 385.2,63.3 334.5,87.6 362.4,136.5 352.5,142.2 318.5,82.6 				"/>
			</g>
		</g>
	</g>
	<g>
		<g>
			<path d="M135.6,415.8C85,403.2,58.3,371.3,49.1,312.3l11.3-1.8c8.5,54.5,31.8,82.6,78,94.1L135.6,415.8z"/>
			<g>
				<polygon points="87,442 82.2,431.6 133.1,407.7 105.6,358.7 115.7,353.1 149.1,412.9 				"/>
			</g>
		</g>
	</g>
</g>
</svg>
