<?xml version="1.0" encoding="utf-8"?>
<svg version="1.1" xmlns="http://www.w3.org/2000/svg" xmlns:xlink="http://www.w3.org/1999/xlink"
	 x="0px" y="0px" viewBox="0 0 192 192" style="enable-background:new 0 0 192 192;" xml:space="preserve">
<style type="text/css">
	.st0{fill:#F2F2F2;}
</style>
<g>
	<g>
		<path class="st0" d="M96.1,103.6H15.9c-6,0-10.9-4.9-10.9-10.9v-67c0-6,4.9-10.9,10.9-10.9h80.2c6,0,10.9,4.9,10.9,10.9v67
			C107,98.7,102.1,103.6,96.1,103.6z"/>
		<path d="M96.1,105.5H15.9C8.8,105.5,3,99.8,3,92.7v-67c0-7.1,5.8-12.8,12.8-12.8h80.2c7.1,0,12.8,5.8,12.8,12.8v67
			c0,3.4-1.3,6.6-3.7,9C102.8,104.2,99.5,105.5,96.1,105.5z M15.9,16.8c-4.9,0-8.9,4-8.9,8.9v67c0,4.9,4,8.9,8.9,8.9h80.2
			c2.4,0,4.7-0.9,6.4-2.6c1.7-1.7,2.6-3.9,2.6-6.3v-67c0-4.9-4-8.9-8.9-8.9H15.9z"/>
	</g>
	<g>
		<path class="st0" d="M162.6,178.4l-78.6-16c-5.9-1.2-9.7-7-8.5-12.8L88.8,84c1.2-5.9,7-9.7,12.8-8.5l78.6,16
			c5.9,1.2,9.7,7,8.5,12.8l-13.4,65.6C174.2,175.8,168.5,179.6,162.6,178.4z"/>
		<path d="M164.7,179.5c-0.8,0-1.5-0.1-2.3-0.2l0,0l-78.6-16c-3.1-0.6-5.7-2.4-7.5-5c-1.7-2.6-2.4-5.8-1.7-8.8L88,83.8
			c0.6-3.1,2.4-5.7,5-7.5c2.6-1.7,5.8-2.4,8.8-1.7l78.6,16c6.4,1.3,10.5,7.5,9.2,13.9l-13.4,65.6
			C175.1,175.6,170.2,179.5,164.7,179.5z M162.8,177.6c5.4,1.1,10.7-2.4,11.8-7.8l13.4-65.6c1.1-5.4-2.4-10.7-7.8-11.8l-78.6-16
			c-2.6-0.5-5.3,0-7.5,1.5c-2.2,1.5-3.8,3.7-4.3,6.4l-13.4,65.6c-0.5,2.6,0,5.3,1.5,7.5c1.5,2.2,3.7,3.8,6.4,4.3L162.8,177.6
			L162.8,177.6z"/>
	</g>
	<g>
		<path class="st0" d="M91.9,81.1l79.8,8.4c6,0.6,10.3,6,9.7,12l-7,66.6c-0.6,6-6,10.3-12,9.7l-79.8-8.4c-6-0.6-10.3-6-9.7-12
			l7-66.6C80.6,84.8,85.9,80.5,91.9,81.1z"/>
		<path d="M163.5,178.7c-0.4,0-0.8,0-1.3-0.1l-79.8-8.4c-3.1-0.3-5.9-1.9-7.9-4.3c-2-2.4-2.9-5.5-2.5-8.6l7-66.6
			c0.7-6.4,6.5-11.1,12.9-10.4l0,0l79.8,8.4c3.1,0.3,5.9,1.9,7.9,4.3c2,2.4,2.9,5.5,2.5,8.6l-7,66.6
			C174.5,174.2,169.4,178.7,163.5,178.7z M90.8,81.9c-5.1,0-9.4,3.8-10,9l-7,66.6c-0.3,2.7,0.5,5.3,2.2,7.3c1.7,2.1,4.1,3.4,6.7,3.7
			l79.8,8.4c5.5,0.6,10.4-3.4,11-8.9l7-66.6c0.3-2.7-0.5-5.3-2.2-7.3c-1.7-2.1-4.1-3.4-6.7-3.7L91.8,82
			C91.4,81.9,91.1,81.9,90.8,81.9z"/>
	</g>
	<g>
		<path class="st0" d="M81.7,87.5h80.2c6,0,10.9,4.9,10.9,10.9v67c0,6-4.9,10.9-10.9,10.9H81.7c-6,0-10.9-4.9-10.9-10.9v-67
			C70.8,92.4,75.7,87.5,81.7,87.5z"/>
		<path d="M161.9,178.2H81.7c-7.1,0-12.8-5.8-12.8-12.8v-67c0-7.1,5.8-12.8,12.8-12.8h80.2c7.1,0,12.8,5.8,12.8,12.8v67
			C174.7,172.4,168.9,178.2,161.9,178.2z M81.7,89.4c-4.9,0-8.9,4-8.9,8.9v67c0,4.9,4,8.9,8.9,8.9h80.2c4.9,0,8.9-4,8.9-8.9v-67
			c0-4.9-4-8.9-8.9-8.9H81.7z"/>
	</g>
	<g>
		<path d="M103.3,143.2v8.1h-3.8v-4.8H82.1v4.8h-3.8v-8.1h2.3l8.6-22.9h2.6l9.1,22.9H103.3z M90.5,125.9l-6.2,17.4h12.8L90.5,125.9z
			"/>
		<path d="M105.4,133.6c0-1.8,0.3-3.5,1-5.1c0.7-1.6,1.6-3,2.9-4.3c1.2-1.2,2.7-2.2,4.5-2.9c1.7-0.7,3.7-1.1,5.8-1.1
			c2.2,0,4.1,0.3,5.9,1.1c1.7,0.7,3.2,1.7,4.5,2.9c1.2,1.2,2.2,2.6,2.8,4.2c0.6,1.6,1,3.3,1,5.1c0,1.8-0.3,3.5-1,5.1s-1.6,3-2.8,4.3
			c-1.2,1.3-2.7,2.2-4.5,2.9c-1.8,0.7-3.8,1.1-6,1.1c-1.4,0-2.8-0.2-4-0.5c-1.3-0.3-2.4-0.8-3.4-1.4c-1-0.6-1.9-1.3-2.8-2.1
			s-1.5-1.7-2.1-2.7c-0.6-1-1-2-1.3-3.2C105.5,135.9,105.4,134.8,105.4,133.6z M109.3,133.6c0,1.4,0.3,2.7,0.8,3.9
			c0.5,1.2,1.2,2.2,2.1,3.2c0.9,0.9,2,1.6,3.2,2.1c1.3,0.5,2.6,0.7,4.1,0.7c1.5,0,2.8-0.3,4.1-0.7c1.3-0.5,2.3-1.2,3.2-2.1
			c0.9-0.9,1.6-1.9,2.1-3.2c0.5-1.2,0.8-2.5,0.8-3.9c0-1.4-0.3-2.8-0.8-4c-0.5-1.2-1.2-2.2-2.1-3.2s-2-1.6-3.2-2.1
			c-1.3-0.5-2.6-0.7-4.1-0.7c-1.5,0-2.8,0.3-4.1,0.7c-1.3,0.5-2.3,1.2-3.2,2.1s-1.6,1.9-2.1,3.2
			C109.5,130.8,109.3,132.1,109.3,133.6z"/>
		<path d="M162.6,120.6v26.1h-3.8v-20.3h-0.1l-8.1,10.1h-0.6l-8.1-10.1H142v20.3h-3.8v-26.1h3.5l8.7,10.7l8.7-10.7H162.6z"/>
	</g>
	<g>
		<path d="M29.3,50v1.6c0.3-0.2,0.6-0.5,1-0.7c0.4-0.3,0.8-0.5,1.3-0.7c0.5-0.2,1-0.3,1.6-0.5c0.6-0.1,1.2-0.2,1.9-0.2
			c1,0,1.9,0.2,2.7,0.5c0.8,0.3,1.4,0.7,1.9,1.3c0.5,0.6,0.9,1.3,1.2,2.1c0.3,0.8,0.4,1.7,0.4,2.7v13.7h-3.2V56.7
			c0-0.6,0-1.1-0.1-1.6c-0.1-0.5-0.3-1-0.5-1.4c-0.3-0.4-0.6-0.7-1.1-1c-0.5-0.2-1.2-0.3-2-0.3c-0.6,0-1.1,0-1.6,0.2
			c-0.5,0.1-1,0.3-1.3,0.5s-0.7,0.4-1.1,0.7c-0.3,0.3-0.6,0.5-0.7,0.8v15.3h-2.9v-1.6c-0.3,0.2-0.6,0.5-1,0.7
			c-0.4,0.3-0.8,0.5-1.3,0.7c-0.5,0.2-1,0.3-1.6,0.5c-0.6,0.1-1.2,0.2-1.9,0.2c-1,0-1.9-0.2-2.7-0.5c-0.8-0.3-1.4-0.7-1.9-1.3
			c-0.5-0.6-0.9-1.3-1.2-2.1c-0.3-0.8-0.4-1.7-0.4-2.7V50h3.2v13.1c0,0.6,0,1.1,0.1,1.6c0.1,0.5,0.3,1,0.5,1.4s0.6,0.7,1.1,1
			c0.5,0.2,1.2,0.3,2,0.3c0.6,0,1.1,0,1.6-0.2c0.5-0.1,1-0.3,1.3-0.5c0.4-0.2,0.7-0.4,1.1-0.7c0.3-0.3,0.6-0.5,0.7-0.8V50L29.3,50
			L29.3,50z"/>
		<path d="M49.4,50v1.6c0.4-0.3,0.8-0.6,1.2-0.9s0.9-0.5,1.3-0.6c0.5-0.2,1-0.3,1.6-0.4c0.6-0.1,1.2-0.1,1.9-0.1
			c2.1,0,3.8,0.6,4.9,1.7c1.2,1.1,1.7,2.7,1.7,4.8v13.7h-3.2V56.7c0-0.7,0-1.3-0.2-1.9c-0.1-0.5-0.3-1-0.6-1.3
			c-0.3-0.3-0.7-0.6-1.3-0.8c-0.5-0.2-1.2-0.3-2-0.3c-0.7,0-1.3,0.1-1.9,0.2c-0.5,0.1-1,0.3-1.4,0.5s-0.7,0.4-1,0.7
			c-0.3,0.3-0.5,0.5-0.6,0.7v15.3h-3.2V50H49.4z"/>
		<path d="M78.7,69.8H67.1V50h3.2v16.9h8.4V69.8z"/>
		<path d="M93.9,69.8v-1.6c-0.4,0.3-0.8,0.6-1.2,0.9s-0.9,0.5-1.3,0.6c-0.5,0.2-1,0.3-1.6,0.4c-0.6,0.1-1.2,0.1-1.9,0.1
			c-2.1,0-3.8-0.6-4.9-1.7c-1.2-1.1-1.7-2.7-1.7-4.8V45.4h-3.9v-2.9h7.1v20.7c0,0.7,0,1.3,0.2,1.9c0.1,0.5,0.3,1,0.6,1.3
			c0.3,0.3,0.7,0.6,1.3,0.8c0.5,0.2,1.2,0.3,2,0.3c0.7,0,1.3-0.1,1.8-0.2c0.5-0.1,1-0.3,1.4-0.5c0.4-0.2,0.7-0.4,1-0.7
			s0.5-0.5,0.6-0.7V50h3.2v19.8H93.9z"/>
	</g>
	<g>
		<g>
			<path d="M154.1,69c-3.4-20.6-12.3-31.2-29.8-35.4l1-4.2c19.2,4.6,29.4,16.6,33.1,38.9L154.1,69z"/>
			<g>
				<polygon points="143.6,19.3 145.4,23.2 126.2,32.4 136.8,50.9 133,53.1 120.1,30.5 				"/>
			</g>
		</g>
	</g>
	<g>
		<g>
			<path d="M50.9,156.7c-19.2-4.8-29.3-16.9-32.8-39.2l4.3-0.7c3.2,20.6,12,31.3,29.5,35.7L50.9,156.7z"/>
			<g>
				<polygon points="32.5,166.6 30.6,162.7 49.9,153.7 39.5,135.1 43.3,133 56,155.6 				"/>
			</g>
		</g>
	</g>
</g>
</svg>
